<svg xmlns="http://www.w3.org/2000/svg" viewBox="0 0 162.87 148.7"><defs><style>.cls-1{fill:#e6f4ff;}.cls-2{fill:#ffd942;}.cls-3{fill:#fff;}.cls-4{fill:#723891;}.cls-5{fill:#ffb8bc;}.cls-6{fill:#8ac9ff;}.cls-7{fill:#4a245e;}.cls-8{fill:#b3dcff;}</style></defs><title>outsourcer</title><g id="Layer_2" data-name="Layer 2"><g id="OBJECTS"><path class="cls-1" d="M0,143.19c0,3,36.46,5.51,81.44,5.51s81.43-2.47,81.43-5.51-36.46-5.5-81.43-5.5S0,140.15,0,143.19Z"/><circle class="cls-2" cx="91.52" cy="24.59" r="12.75"/><path class="cls-3" d="M91.52,46.81a.64.64,0,0,1-.64-.64V18.25a.64.64,0,1,1,1.27,0V46.17A.64.64,0,0,1,91.52,46.81Z"/><path class="cls-3" d="M91.64,30.05a.63.63,0,0,1-.45-.18.63.63,0,0,1,0-.9l7.31-7.32a.65.65,0,0,1,.9,0,.63.63,0,0,1,0,.9l-7.31,7.32A.66.66,0,0,1,91.64,30.05Z"/><path class="cls-3" d="M91.52,35a.63.63,0,0,1-.45-.18l-7.32-7.31a.65.65,0,0,1,0-.9.65.65,0,0,1,.91,0L92,33.9a.65.65,0,0,1,0,.9A.66.66,0,0,1,91.52,35Z"/><polygon class="cls-4" points="85.09 54.8 98.06 54.8 100.91 39.45 82.25 39.45 85.09 54.8"/><rect class="cls-4" x="90.95" y="37.32" width="1.14" height="8.85"/><path class="cls-5" d="M117,30.53h0A3,3,0,0,0,120.39,28L122,20.09l-6.75-1.83-.83,8.84A3,3,0,0,0,117,30.53Z"/><path class="cls-5" d="M116.36,25.08h0a6.08,6.08,0,0,0,6.69-5.35l.82-7.35a6.05,6.05,0,0,0-5.34-6.68h0A6.07,6.07,0,0,0,111.84,11L111,18.39A6.07,6.07,0,0,0,116.36,25.08Z"/><path class="cls-4" d="M113.07,12.52c.39-1.35,5.33,1.71,5.84,2.68a2.29,2.29,0,0,1-.1,2.77c-.67,1-2.56,2.34-4.27,1.87C111.5,19,112.49,14.58,113.07,12.52Z"/><path class="cls-6" d="M68.73,52.56c1.61-1.49,4.12-1.08,6.28-.71,1.42.24,2.85.42,4.29.52.06-.27.13-.53.2-.81,27.84.72,26.92-13.11,38.8-20.25,6.91-4.15,7.63,2.46,7,6.84-2.7,18.76-29.91,24.45-47,21.65l0-.29c-2.24-.27-4.34-.4-6.59-.85a6.43,6.43,0,0,1-2.81-1,3.48,3.48,0,0,1-.22-5Z"/><rect class="cls-4" x="126.67" y="58.85" width="2.29" height="85.33" transform="translate(-20.2 32.7) rotate(-13.52)"/><rect class="cls-4" x="-19.24" y="100.37" width="85.33" height="2.29" transform="translate(-80.76 100.59) rotate(-76.5)"/><rect class="cls-4" x="13.53" y="59.31" width="124.17" height="8.81" transform="translate(151.24 127.43) rotate(180)"/><rect class="cls-7" x="13.53" y="59.31" width="25.97" height="8.81" transform="translate(53.04 127.43) rotate(180)"/><path class="cls-7" d="M144.28,100.46H126.86l.89-10.19a5.44,5.44,0,0,1,5.31-4.88h7.46a4.59,4.59,0,0,1,4.63,5.08Zm-14.94-2.28h12.85l.69-7.91a2.35,2.35,0,0,0-.59-1.85,2.4,2.4,0,0,0-1.77-.75h-7.46a3.12,3.12,0,0,0-3,2.8Z"/><rect class="cls-5" x="60.65" y="125.33" width="6.24" height="14.5" transform="translate(-2.18 1.07) rotate(-0.95)"/><path class="cls-4" d="M67.26,138.53c-2.21-.2-7.7.06-7.7.06S53,141,52,143.05c-.64,1.27,1.42,2.08,2.56,2l13.27-1.82Z"/><path class="cls-5" d="M67.26,138.53s-5,1.95-7.7.06l1.16-.46s3.9-2.35,6.15-2.16Z"/><path class="cls-7" d="M58.5,135.25c-.86-17.62-.18-31.82,3.91-39.23,6-10.77,26.14-18,51.87-17.68.07,6.39.52,12.76.75,19.15-32.95.22-46.8-5.41-46.07,37.76C66.19,135.26,61.42,135.31,58.5,135.25Z"/><path class="cls-7" d="M106,97.44s16.16,4.11,22.1,1.88c5.51-2.07,9.83-8,9.61-18.94-.16-7.68-31.71-.94-31.71-.94Z"/><rect class="cls-5" x="44.4" y="107.81" width="14.5" height="6.24" transform="matrix(0.31, -0.95, 0.95, 0.31, -69.78, 126)"/><path class="cls-4" d="M53,117.68c-2-.9-7.31-2.42-7.31-2.42s-7,.19-8.61,1.77c-1,1,.67,2.43,1.79,2.69L52,122.28Z"/><path class="cls-5" d="M53,117.68s-5.33.24-7.31-2.42L47,115.2s4.45-1,6.51-.07Z"/><path class="cls-4" d="M45.8,111.75c4.87-17,10.1-30.18,16.37-35.86,9.12-8.27,29.06-4.35,52.27,4.91-1.43,3.68-2.66,12.23-3,13.46C80.24,83.83,69,74,55.7,115.13,53.07,114.25,48.54,112.75,45.8,111.75Z"/><path class="cls-7" d="M73.74,99.35c-2.5-2.34-5.14-4.52-7.84-6.63l.61-.82c8.83-10,25.22-13.84,47.77-13.56.07,6.39.52,12.76.75,19.15-18.68.12-31.23-1.63-38.45,4.7C75.66,101.22,74.71,100.27,73.74,99.35Z"/><path class="cls-8" d="M137.93,73.56c-.74-17.05-1.38-27.1-1.51-29.12-.87-14-7.58-17.38-14.94-17.82-8.54-.5-18.73-.72-19.14,10.7l-.62,9.48A5.17,5.17,0,0,0,100,48.11a5.3,5.3,0,0,0-.86,5.35,5.6,5.6,0,0,0,2,2.46L99.68,78.33s8.22,2.78,14.68,3.14c7.55.42,23.79-2,23.79-2S138.16,79,137.93,73.56Z"/><path class="cls-4" d="M109.39,100.46H92l.9-10.19a5.43,5.43,0,0,1,5.31-4.88h7.45a4.59,4.59,0,0,1,4.64,5.08ZM94.45,98.18H107.3l.69-7.91a2.31,2.31,0,0,0-2.37-2.6H98.17a3.11,3.11,0,0,0-3,2.8Z"/><path class="cls-7" d="M111.2,84.05H142l3.51-40.14H110.39l-3.7,40.14Z"/><polygon class="cls-4" points="109.04 105.03 144.08 105.03 144.76 97.25 109.72 97.25 109.04 105.03"/><polygon class="cls-7" points="91.52 105.03 109.04 105.03 109.72 97.25 92.2 97.25 91.52 105.03"/><path class="cls-7" d="M111.5,140.16a2.84,2.84,0,0,0,2.87,3.14,3.5,3.5,0,0,0,3.42-3.14,2.83,2.83,0,0,0-2.87-3.15A3.51,3.51,0,0,0,111.5,140.16Z"/><rect class="cls-7" x="112.41" y="134.74" width="5.24" height="2.28" transform="translate(-30.39 238.58) rotate(-84.98)"/><rect class="cls-4" x="100.15" y="116.42" width="32.95" height="2.28" transform="matrix(0.09, -1, 1, 0.09, -10.68, 223.46)"/><polygon class="cls-4" points="126.73 137.7 124.46 137.5 124.67 135.11 105.51 135.11 105.28 137.7 103.02 137.5 103.42 132.83 127.15 132.83 126.73 137.7"/><path class="cls-4" d="M122.38,140.16a2.83,2.83,0,0,0,2.87,3.14,3.51,3.51,0,0,0,3.42-3.14A2.84,2.84,0,0,0,125.8,137,3.5,3.5,0,0,0,122.38,140.16Z"/><path class="cls-4" d="M100.78,140.16a2.83,2.83,0,0,0,2.87,3.14,3.5,3.5,0,0,0,3.42-3.14A2.84,2.84,0,0,0,104.2,137,3.5,3.5,0,0,0,100.78,140.16Z"/><polygon class="cls-4" points="110.87 84.05 145.91 84.05 149.42 43.91 114.39 43.91 110.87 84.05"/><rect class="cls-4" x="112.18" y="82.54" width="32.49" height="2.28" transform="translate(33.84 204.29) rotate(-84.98)"/><path class="cls-7" d="M74.61,48.09H28V14.49H74.61ZM29.78,46.26h43V16.32h-43Z"/><rect class="cls-3" x="30.69" y="15.41" width="44.84" height="31.77"/><path class="cls-4" d="M76.44,48.09H29.78V14.49H76.44ZM31.61,46.26h43V16.32h-43Z"/><rect class="cls-7" x="42.78" y="48.09" width="17.23" height="7.11"/><rect class="cls-4" x="44.38" y="48.09" width="17.23" height="7.11"/><rect class="cls-7" x="39.21" y="55.2" width="27.92" height="4.06"/><path class="cls-5" d="M52.2,54.29a3.29,3.29,0,0,1,1-2.53c1.61-1.49,4.13-1.08,6.28-.71a40.47,40.47,0,0,0,17.42-.67c9.2-2.54,16.9-8.71,24.16-14.91a15.06,15.06,0,0,1,2.07-1.66c.92-.52,1.19,0,1.56.86a16.65,16.65,0,0,1,1,5.41,7.54,7.54,0,0,1-.35,3.31A8,8,0,0,1,103,46.23C96.16,52.12,68.81,59.51,63.55,58.8c-2.53-.34-4.84-.44-7.34-.94a6.31,6.31,0,0,1-2.81-1A3.28,3.28,0,0,1,52.2,54.29Z"/><path class="cls-8" d="M109.75,37.35c.63-4.38,2.93-12.3-4-8.15C93.89,36.33,91.79,51.48,64,50.76A40.79,40.79,0,0,0,62.77,59C79.84,61.8,107.05,56.11,109.75,37.35Z"/><path class="cls-4" d="M143.49,33.39c-1-2.92-5.5-4.49-5.16-7.91A10.63,10.63,0,0,1,139.81,22a3.44,3.44,0,0,0-.06-3.64A5.91,5.91,0,0,0,138.18,17c-1-.62-2-1.15-3-1.82-2.52-1.8-2.85-5-4.3-7.54-3.23-5.61-9.59-9.61-16.07-6.68-4.56,2.05-8,8.91-2.4,11.93,2.44,1.31,3.21,3.26,3.64,5.8.67,4,.68,8.18,2.33,11.93,3.59,8.2,12.92,9,20.7,7.12a8.17,8.17,0,0,0,3-1.23C143.58,35.47,143.84,34.43,143.49,33.39Z"/></g></g></svg>