<svg xmlns="http://www.w3.org/2000/svg" viewBox="0 0 401 355.67"><title>sourcehive-logo</title><g id="Layer_2" data-name="Layer 2"><g id="Layer_1-2" data-name="Layer 1"><path d="M396.55,159.28,314.7,18.55C308.77,8.35,294.26,0,282.46,0H118.54c-11.8,0-26.31,8.35-32.25,18.55L4.45,159.28c-5.93,10.21-5.93,26.9,0,37.1L86.29,337.12c5.94,10.2,20.45,18.55,32.25,18.55H282.46c11.8,0,26.31-8.35,32.24-18.55l81.85-140.74C402.48,186.18,402.48,169.49,396.55,159.28ZM101.61,39.89c5.11-8.8,17.69-16.06,27.9-16.06H271.45c10.26,0,22.79,7.26,27.94,16.06l35.24,60.6c-10.9-.34-22.45,5.45-26.61,15.37a65.11,65.11,0,0,0-4.6,20.25c-1.28,17.43,1.89,34.38,5.07,51.34,1.42,7.55,2.62,15.15,4.16,22.66,1,5.19,2.58,10.26,2.23,15.62a49.14,49.14,0,0,1-1.54,10c-1.93,7.34-6.61,12.15-14,13.57-8,1.5-13.73-2.41-18.11-8.93-3.52-5.28-4.63-11.2-5.28-17.3-1.59-16.05-.3-32.1.86-48.11.43-6.1-.17-12.19.43-18.24,1-10.09-.43-20-2.06-29.79-1.55-9.23-5.28-17.51-13.35-23.26-6.91-4.94-14.63-5.41-22.62-5.07-12.66.52-20.94,7.56-27,18.07a80.57,80.57,0,0,0-7,15.24c-3,9.27-13.77,10.34-20.43,5.11a17.27,17.27,0,0,1-5.7-8.24c-3.27-9.62-7.77-18.59-14.86-26.06a10,10,0,0,0-11-2.57,29.76,29.76,0,0,0-12.71,9.14,45.22,45.22,0,0,0-10.34,24.42,96.6,96.6,0,0,1-6.52,26.7,31.16,31.16,0,0,1-3.61,6.52,11.7,11.7,0,0,1-18.84-.43,59,59,0,0,1-8.5-18.71c-3.52-13.56-4.46-27.55-7.55-41.16-2-8.67-4-17.34-7.56-25.49Z"/><path d="M300.29,242.81c2.75.09,4.42-1.63,5.67-3.77,2.61-4.6,2.66-9.7,2.79-14.81a1.08,1.08,0,0,0-.82-1.16c-.17.13-.56.26-.6.47-1.59,6.27-4,12.1-8.28,17C297.76,242,298.83,242.77,300.29,242.81Z"/></g></g></svg>